<svg width="12" height="83" viewBox="0 0 12 83" fill="none" xmlns="http://www.w3.org/2000/svg">
<path d="M7 1C7 0.447715 6.55228 -2.41411e-08 6 0C5.44772 2.41411e-08 5 0.447715 5 1L7 1ZM6 82.7735L11.7735 77L6 71.2265L0.2265 77L6 82.7735ZM5 7.33333C5 7.88562 5.44772 8.33333 6 8.33333C6.55229 8.33333 7 7.88562 7 7.33333L5 7.33333ZM7 20C7 19.4477 6.55229 19 6 19C5.44772 19 5 19.4477 5 20L7 20ZM5 32.6667C5 33.219 5.44772 33.6667 6 33.6667C6.55229 33.6667 7 33.219 7 32.6667L5 32.6667ZM7 45.3333C7 44.7811 6.55229 44.3333 6 44.3333C5.44772 44.3333 5 44.7811 5 45.3333L7 45.3333ZM5 58C5 58.5523 5.44772 59 6 59C6.55229 59 7 58.5523 7 58L5 58ZM7 70.6667C7 70.1144 6.55229 69.6667 6 69.6667C5.44772 69.6667 5 70.1144 5 70.6667L7 70.6667ZM5 1L5 7.33333L7 7.33333L7 1L5 1ZM5 20L5 32.6667L7 32.6667L7 20L5 20ZM5 45.3333L5 58L7 58L7 45.3333L5 45.3333ZM5 70.6667L5 77L7 77L7 70.6667L5 70.6667Z" fill="#794187"/>
</svg>
